<svg xmlns="http://www.w3.org/2000/svg" xmlns:xlink="http://www.w3.org/1999/xlink" version="1.1" x="0px" y="0px" viewBox="0 0 100 125" style="enable-background:new 0 0 100 100;" xml:space="preserve"><g><path d="M58.1847878,89.8407669c-1.1162415,0-2.0212746-0.9050369-2.0212746-2.0212784   c0-13.6806259-11.1298523-24.810482-24.8109741-24.810482c-13.6801338,0-24.8099842,11.1298561-24.8099842,24.810482   c0,1.1162415-0.9050345,2.0212784-2.021277,2.0212784S2.500001,88.93573,2.500001,87.8194885   c0-15.9096603,12.9428816-28.853035,28.8525391-28.853035s28.8535271,12.9433746,28.8535271,28.853035   C60.2060661,88.93573,59.3010292,89.8407669,58.1847878,89.8407669z"/></g><g><path d="M31.3525391,56.9343224c-8.7907753,0-15.9432135-7.1524391-15.9432135-15.9437103   s7.1524382-15.9432125,15.9432135-15.9432125s15.9432144,7.1519451,15.9432144,15.9432125   S40.1433144,56.9343224,31.3525391,56.9343224z M31.3525391,29.0899525c-6.5622406,0-11.9006596,5.338419-11.9006596,11.9006596   s5.338419,11.9011574,11.9006596,11.9011574s11.9006615-5.3389168,11.9006615-11.9011574   S37.9147797,29.0899525,31.3525391,29.0899525z"/></g><g><path d="M95.4787216,74.9525986c-1.1162415,0-2.0212784-0.9050293-2.0212784-2.0212784   c0-13.6806259-11.1298523-24.8104744-24.8099823-24.8104744c-5.7124748,0-11.0805054,1.8865547-15.5247459,5.4558678   c-0.869503,0.6982651-2.1416855,0.5596008-2.8414345-0.3103981c-0.698761-0.870491-0.5596008-2.1426697,0.3108902-2.8419266   c5.0956306-4.0923958,11.5078545-6.346096,18.0552902-6.346096C84.5571213,44.0782928,97.5,57.0216675,97.5,72.9313202   C97.5,74.0475693,96.5949631,74.9525986,95.4787216,74.9525986z"/></g><g><path d="M68.6474609,42.0456657c-8.7907753,0-15.9432144-7.1519432-15.9432144-15.9432144   s7.1524391-15.9432144,15.9432144-15.9432144s15.9432144,7.1519432,15.9432144,15.9432144   S77.4382401,42.0456657,68.6474609,42.0456657z M68.6474609,14.2017899c-6.5622406,0-11.9006615,5.3384209-11.9006615,11.9006615   s5.3384209,11.9006615,11.9006615,11.9006615s11.9006577-5.3384209,11.9006577-11.9006615   S75.2097015,14.2017899,68.6474609,14.2017899z"/></g><text x="0" y="115" fill="#000000" font-size="5px" font-weight="bold" font-family="'Helvetica Neue', Helvetica, Arial-Unicode, Arial, Sans-serif">Created by kampungan</text><text x="0" y="120" fill="#000000" font-size="5px" font-weight="bold" font-family="'Helvetica Neue', Helvetica, Arial-Unicode, Arial, Sans-serif">from the Noun Project</text></svg>